<svg width="251" height="53" viewBox="0 0 251 53" fill="none" xmlns="http://www.w3.org/2000/svg">
<path d="M12.3924 39.35C10.0591 39.35 7.95905 38.95 6.09238 38.15C4.22572 37.3167 2.75905 36.15 1.69238 34.65C0.625716 33.15 0.0923829 31.4 0.0923829 29.4H6.19238C6.32572 30.9 6.90905 32.1333 7.94238 33.1C9.00905 34.0667 10.4924 34.55 12.3924 34.55C14.359 34.55 15.8924 34.0833 16.9924 33.15C18.0924 32.1833 18.6424 30.95 18.6424 29.45C18.6424 28.2833 18.2924 27.3333 17.5924 26.6C16.9257 25.8667 16.0757 25.3 15.0424 24.9C14.0424 24.5 12.6424 24.0667 10.8424 23.6C8.57572 23 6.72572 22.4 5.29238 21.8C3.89238 21.1667 2.69238 20.2 1.69238 18.9C0.692383 17.6 0.192383 15.8667 0.192383 13.7C0.192383 11.7 0.692383 9.95 1.69238 8.45C2.69238 6.95 4.09238 5.8 5.89238 5C7.69238 4.2 9.77572 3.8 12.1424 3.8C15.5091 3.8 18.259 4.65 20.3924 6.35C22.5591 8.01666 23.7591 10.3167 23.9924 13.25H17.6924C17.5924 11.9833 16.9924 10.9 15.8924 10C14.7924 9.1 13.3424 8.65 11.5424 8.65C9.90905 8.65 8.57572 9.06666 7.54238 9.9C6.50905 10.7333 5.99238 11.9333 5.99238 13.5C5.99238 14.5667 6.30905 15.45 6.94238 16.15C7.60905 16.8167 8.44238 17.35 9.44238 17.75C10.4424 18.15 11.8091 18.5833 13.5424 19.05C15.8424 19.6833 17.7091 20.3167 19.1424 20.95C20.609 21.5833 21.8424 22.5667 22.8424 23.9C23.8757 25.2 24.3924 26.95 24.3924 29.15C24.3924 30.9167 23.9091 32.5833 22.9424 34.15C22.0091 35.7167 20.6257 36.9833 18.7924 37.95C16.9924 38.8833 14.8591 39.35 12.3924 39.35ZM36.8182 15.5C37.7848 14.2333 39.1015 13.1667 40.7682 12.3C42.4348 11.4333 44.3182 11 46.4182 11C48.8182 11 51.0015 11.6 52.9682 12.8C54.9682 13.9667 56.5348 15.6167 57.6682 17.75C58.8015 19.8833 59.3682 22.3333 59.3682 25.1C59.3682 27.8667 58.8015 30.35 57.6682 32.55C56.5348 34.7167 54.9682 36.4167 52.9682 37.65C51.0015 38.85 48.8182 39.45 46.4182 39.45C44.3182 39.45 42.4515 39.0333 40.8182 38.2C39.1848 37.3333 37.8515 36.2667 36.8182 35V52.1H31.1182V11.45H36.8182V15.5ZM53.5682 25.1C53.5682 23.2 53.1682 21.5667 52.3682 20.2C51.6015 18.8 50.5682 17.75 49.2682 17.05C48.0015 16.3167 46.6348 15.95 45.1682 15.95C43.7348 15.95 42.3682 16.3167 41.0682 17.05C39.8015 17.7833 38.7682 18.85 37.9682 20.25C37.2015 21.65 36.8182 23.3 36.8182 25.2C36.8182 27.1 37.2015 28.7667 37.9682 30.2C38.7682 31.6 39.8015 32.6667 41.0682 33.4C42.3682 34.1333 43.7348 34.5 45.1682 34.5C46.6348 34.5 48.0015 34.1333 49.2682 33.4C50.5682 32.6333 51.6015 31.5333 52.3682 30.1C53.1682 28.6667 53.5682 27 53.5682 25.1ZM70.7049 2V39H65.0049V2H70.7049ZM81.0885 7.8C80.0551 7.8 79.1885 7.45 78.4885 6.75C77.7885 6.05 77.4385 5.18333 77.4385 4.15C77.4385 3.11666 77.7885 2.25 78.4885 1.55C79.1885 0.849998 80.0551 0.499998 81.0885 0.499998C82.0885 0.499998 82.9385 0.849998 83.6385 1.55C84.3385 2.25 84.6885 3.11666 84.6885 4.15C84.6885 5.18333 84.3385 6.05 83.6385 6.75C82.9385 7.45 82.0885 7.8 81.0885 7.8ZM83.8885 11.45V39H78.1885V11.45H83.8885ZM98.0221 16.1V31.35C98.0221 32.3833 98.2554 33.1333 98.7221 33.6C99.2221 34.0333 100.055 34.25 101.222 34.25H104.722V39H100.222C97.6554 39 95.6887 38.4 94.3221 37.2C92.9554 36 92.2721 34.05 92.2721 31.35V16.1H89.0221V11.45H92.2721V4.6H98.0221V11.45H104.722V16.1H98.0221ZM121.426 39.35C119.092 39.35 116.992 38.95 115.126 38.15C113.259 37.3167 111.792 36.15 110.726 34.65C109.659 33.15 109.126 31.4 109.126 29.4H115.226C115.359 30.9 115.942 32.1333 116.976 33.1C118.042 34.0667 119.526 34.55 121.426 34.55C123.392 34.55 124.926 34.0833 126.026 33.15C127.126 32.1833 127.676 30.95 127.676 29.45C127.676 28.2833 127.326 27.3333 126.626 26.6C125.959 25.8667 125.109 25.3 124.076 24.9C123.076 24.5 121.676 24.0667 119.876 23.6C117.609 23 115.759 22.4 114.326 21.8C112.926 21.1667 111.726 20.2 110.726 18.9C109.726 17.6 109.226 15.8667 109.226 13.7C109.226 11.7 109.726 9.95 110.726 8.45C111.726 6.95 113.126 5.8 114.926 5C116.726 4.2 118.809 3.8 121.176 3.8C124.542 3.8 127.292 4.65 129.426 6.35C131.592 8.01666 132.792 10.3167 133.026 13.25H126.726C126.626 11.9833 126.026 10.9 124.926 10C123.826 9.1 122.376 8.65 120.576 8.65C118.942 8.65 117.609 9.06666 116.576 9.9C115.542 10.7333 115.026 11.9333 115.026 13.5C115.026 14.5667 115.342 15.45 115.976 16.15C116.642 16.8167 117.476 17.35 118.476 17.75C119.476 18.15 120.842 18.5833 122.576 19.05C124.876 19.6833 126.742 20.3167 128.176 20.95C129.642 21.5833 130.876 22.5667 131.876 23.9C132.909 25.2 133.426 26.95 133.426 29.15C133.426 30.9167 132.942 32.5833 131.976 34.15C131.042 35.7167 129.659 36.9833 127.826 37.95C126.026 38.8833 123.892 39.35 121.426 39.35ZM154.401 11C156.501 11 158.368 11.45 160.001 12.35C161.668 13.25 162.968 14.5833 163.901 16.35C164.868 18.1167 165.351 20.25 165.351 22.75V39H159.701V23.6C159.701 21.1333 159.085 19.25 157.851 17.95C156.618 16.6167 154.935 15.95 152.801 15.95C150.668 15.95 148.968 16.6167 147.701 17.95C146.468 19.25 145.851 21.1333 145.851 23.6V39H140.151V2H145.851V14.65C146.818 13.4833 148.035 12.5833 149.501 11.95C151.001 11.3167 152.635 11 154.401 11ZM170.722 25.1C170.722 22.3333 171.289 19.8833 172.422 17.75C173.589 15.6167 175.155 13.9667 177.122 12.8C179.122 11.6 181.322 11 183.722 11C185.889 11 187.772 11.4333 189.372 12.3C191.005 13.1333 192.305 14.1833 193.272 15.45V11.45H199.022V39H193.272V34.9C192.305 36.2 190.989 37.2833 189.322 38.15C187.655 39.0167 185.755 39.45 183.622 39.45C181.255 39.45 179.089 38.85 177.122 37.65C175.155 36.4167 173.589 34.7167 172.422 32.55C171.289 30.35 170.722 27.8667 170.722 25.1ZM193.272 25.2C193.272 23.3 192.872 21.65 192.072 20.25C191.305 18.85 190.289 17.7833 189.022 17.05C187.755 16.3167 186.389 15.95 184.922 15.95C183.455 15.95 182.089 16.3167 180.822 17.05C179.555 17.75 178.522 18.8 177.722 20.2C176.955 21.5667 176.572 23.2 176.572 25.1C176.572 27 176.955 28.6667 177.722 30.1C178.522 31.5333 179.555 32.6333 180.822 33.4C182.122 34.1333 183.489 34.5 184.922 34.5C186.389 34.5 187.755 34.1333 189.022 33.4C190.289 32.6667 191.305 31.6 192.072 30.2C192.872 28.7667 193.272 27.1 193.272 25.2ZM212.209 15.45C213.042 14.05 214.142 12.9667 215.509 12.2C216.909 11.4 218.559 11 220.459 11V16.9H219.009C216.775 16.9 215.075 17.4667 213.909 18.6C212.775 19.7333 212.209 21.7 212.209 24.5V39H206.509V11.45H212.209V15.45ZM250.948 24.55C250.948 25.5833 250.882 26.5167 250.748 27.35H229.698C229.865 29.55 230.682 31.3167 232.148 32.65C233.615 33.9833 235.415 34.65 237.548 34.65C240.615 34.65 242.782 33.3667 244.048 30.8H250.198C249.365 33.3333 247.848 35.4167 245.648 37.05C243.482 38.65 240.782 39.45 237.548 39.45C234.915 39.45 232.548 38.8667 230.448 37.7C228.382 36.5 226.748 34.8333 225.548 32.7C224.382 30.5333 223.798 28.0333 223.798 25.2C223.798 22.3667 224.365 19.8833 225.498 17.75C226.665 15.5833 228.282 13.9167 230.348 12.75C232.448 11.5833 234.848 11 237.548 11C240.148 11 242.465 11.5667 244.498 12.7C246.532 13.8333 248.115 15.4333 249.248 17.5C250.382 19.5333 250.948 21.8833 250.948 24.55ZM244.998 22.75C244.965 20.65 244.215 18.9667 242.748 17.7C241.282 16.4333 239.465 15.8 237.298 15.8C235.332 15.8 233.648 16.4333 232.248 17.7C230.848 18.9333 230.015 20.6167 229.748 22.75H244.998Z" fill="black"/>
</svg>
