<?xml version="1.0" standalone="no"?>
<!DOCTYPE svg PUBLIC "-//W3C//DTD SVG 20010904//EN"
 "http://www.w3.org/TR/2001/REC-SVG-20010904/DTD/svg10.dtd">
<svg version="1.0" xmlns="http://www.w3.org/2000/svg"
 width="634.000000pt" height="634.000000pt" viewBox="0 0 634.000000 634.000000"
 preserveAspectRatio="xMidYMid meet">
<metadata>
Created by potrace 1.14, written by Peter Selinger 2001-2017
</metadata>
<g transform="translate(0.000000,634.000000) scale(0.100000,-0.100000)"
fill="#000000" stroke="none">
<path d="M2940 3170 l0 -3170 230 0 229 0 -1 33 c-1 19 2 39 6 45 3 6 2 13 -3
16 -5 4 -6 18 -2 34 4 15 4 39 0 54 -4 14 -5 29 -2 32 3 3 4 42 4 88 -1 46 -2
90 -1 98 0 8 0 33 -1 55 -1 22 -1 47 0 55 3 49 0 123 -5 131 -3 5 -2 9 3 9 7
0 7 154 0 225 -2 17 0 41 3 55 4 14 4 36 0 50 -4 14 -3 35 1 47 5 12 4 25 -1
28 -5 3 -5 18 -1 33 4 15 5 38 1 52 -4 14 -4 34 0 45 4 11 6 29 4 40 -4 22 -5
59 -4 148 0 33 -2 63 -6 68 -3 5 -1 9 3 9 5 0 8 24 6 52 -3 74 -3 124 -3 191
0 33 -2 63 -5 67 -3 5 -1 10 4 12 5 1 6 23 2 48 -4 25 -4 56 -1 70 4 14 3 36
0 50 -4 14 -4 35 1 47 4 12 4 25 -1 28 -5 3 -5 18 -1 33 4 15 4 39 0 54 -4 15
-5 29 -2 32 3 3 4 42 4 88 -1 46 -2 90 -1 98 0 8 0 33 -1 55 -1 22 -1 47 0 55
3 49 0 123 -5 131 -3 5 -2 9 3 9 7 0 7 154 0 225 -2 17 0 41 3 55 4 14 4 36 0
50 -4 14 -3 35 1 47 5 12 4 25 -1 28 -5 3 -5 18 -1 33 4 15 5 38 1 52 -4 14
-4 34 0 45 4 11 6 29 4 40 -4 22 -5 59 -4 148 0 33 -2 63 -6 68 -3 5 -1 9 3 9
5 0 8 24 6 53 -3 73 -3 123 -3 190 0 33 -2 63 -6 68 -3 5 -1 9 3 9 5 0 8 24 6
53 -3 73 -3 123 -3 190 0 33 -2 63 -6 68 -3 5 -1 9 3 9 5 0 8 24 6 53 -3 73
-3 123 -3 190 0 33 -2 63 -5 67 -3 5 -1 10 4 12 5 1 6 23 2 48 -4 25 -4 56 -1
70 4 14 3 36 0 50 -4 14 -4 35 1 47 4 12 4 25 -1 28 -5 3 -5 18 -1 33 4 15 4
39 0 54 -4 15 -5 29 -2 32 3 3 4 42 4 88 -1 46 -2 90 -1 98 0 8 0 33 -1 55 -1
22 -1 47 0 55 3 49 0 123 -5 131 -3 5 -2 9 3 9 7 0 7 154 0 225 -2 17 0 41 3
55 4 14 4 36 0 50 -4 14 -3 35 1 47 5 12 4 25 -1 28 -5 3 -5 18 -1 33 4 15 5
38 1 52 -4 14 -4 34 0 45 4 11 6 29 4 40 -4 22 -5 59 -4 148 0 33 -2 63 -6 68
-3 5 -1 9 3 9 5 0 8 24 6 53 -3 73 -3 123 -3 190 0 33 -2 63 -5 67 -3 5 -1 10
3 12 5 1 6 22 4 46 l-4 42 -229 0 -229 0 0 -3170z"/>
<path d="M4570 5963 c0 -4 -10 -13 -23 -19 -40 -19 -201 -106 -257 -139 -48
-28 -146 -82 -270 -148 -117 -62 -135 -76 -135 -101 -1 -14 -3 -28 -7 -31 -3
-3 -2 -22 1 -43 4 -20 4 -48 1 -62 -3 -13 -3 -46 0 -72 4 -28 2 -48 -3 -48 -5
0 -4 -6 2 -14 8 -9 8 -16 2 -20 -5 -4 -6 -18 -2 -34 4 -15 5 -38 1 -52 -3 -13
-3 -46 0 -71 3 -26 3 -55 -1 -65 -3 -11 -3 -29 2 -41 6 -15 5 -23 -2 -23 -8 0
-8 -4 0 -14 8 -9 8 -16 2 -20 -5 -4 -6 -18 -2 -34 4 -15 5 -38 1 -52 -3 -13
-3 -46 0 -72 4 -28 2 -48 -3 -48 -5 0 -4 -6 2 -14 8 -9 8 -16 2 -20 -5 -4 -6
-18 -2 -34 4 -15 5 -38 1 -52 -3 -13 -3 -46 0 -72 4 -28 2 -48 -3 -48 -5 0 -4
-6 2 -14 8 -9 8 -16 2 -20 -5 -4 -6 -18 -2 -34 4 -15 5 -38 1 -52 -3 -13 -3
-46 0 -72 4 -28 2 -48 -3 -48 -5 0 -4 -6 2 -14 8 -9 8 -16 2 -20 -5 -4 -6 -18
-2 -34 4 -15 5 -38 1 -52 -3 -13 -3 -46 0 -72 4 -28 2 -48 -3 -48 -5 0 -4 -6
2 -14 8 -9 8 -16 2 -20 -6 -4 -6 -18 -1 -35 4 -16 6 -32 3 -35 -5 -5 -5 -45 0
-169 1 -26 -2 -47 -7 -47 -5 0 -3 -6 3 -14 8 -9 8 -16 2 -20 -5 -4 -6 -18 -2
-34 4 -15 5 -38 1 -52 -3 -13 -3 -46 0 -72 4 -28 2 -48 -3 -48 -5 0 -4 -6 2
-14 8 -9 8 -16 2 -20 -5 -4 -6 -18 -2 -34 4 -15 5 -38 1 -52 -3 -13 -3 -46 0
-72 4 -28 2 -48 -3 -48 -5 0 -4 -6 2 -14 8 -9 8 -16 2 -20 -5 -4 -6 -18 -2
-34 4 -15 5 -38 1 -52 -3 -13 -3 -46 0 -72 4 -28 2 -48 -3 -48 -5 0 -4 -6 2
-14 8 -9 8 -16 2 -20 -5 -4 -6 -18 -2 -34 4 -15 5 -38 1 -52 -3 -13 -3 -46 0
-72 4 -28 2 -48 -3 -48 -5 0 -4 -6 2 -14 8 -9 8 -16 2 -20 -5 -4 -6 -18 -2
-34 4 -15 5 -38 1 -52 -3 -13 -3 -46 0 -71 3 -26 3 -55 -1 -65 -3 -11 -3 -29
2 -41 6 -15 5 -23 -2 -23 -8 0 -8 -4 0 -14 8 -9 8 -16 2 -20 -5 -4 -6 -18 -2
-34 4 -15 5 -38 1 -52 -3 -13 -3 -46 0 -72 4 -28 2 -48 -3 -48 -5 0 -4 -6 2
-14 8 -9 8 -16 2 -20 -5 -4 -6 -18 -2 -34 4 -15 5 -38 1 -52 -3 -13 -3 -46 0
-72 4 -28 2 -48 -3 -48 -5 0 -4 -6 2 -14 8 -9 8 -16 2 -20 -5 -4 -6 -18 -2
-34 4 -15 5 -38 1 -52 -3 -13 -3 -46 0 -72 4 -30 2 -49 -4 -52 -8 -3 -7 -5 0
-5 7 -1 9 -12 6 -27 l-5 -26 59 33 c33 18 61 37 62 41 2 4 8 8 13 8 4 0 46 22
91 49 46 27 99 58 118 68 19 11 118 69 220 128 102 60 202 118 222 129 20 12
87 50 148 86 61 36 128 74 148 85 20 11 39 23 40 28 2 4 9 7 17 7 7 0 18 7 25
15 7 8 16 12 21 9 5 -3 9 -2 9 3 0 4 10 13 23 19 25 12 193 109 277 160 30 18
71 41 90 52 19 10 97 55 174 100 76 45 140 82 142 82 2 0 28 16 58 35 30 19
59 35 65 35 5 0 16 6 23 13 7 7 60 39 118 72 58 32 107 62 110 65 3 3 26 16
52 29 96 51 95 42 23 162 -34 59 -76 131 -92 160 -16 30 -42 73 -56 96 -15 24
-27 45 -27 48 0 4 -13 26 -30 50 -16 24 -30 46 -30 49 0 3 -14 29 -31 58 -18
29 -40 67 -49 83 -87 151 -182 315 -226 389 -30 49 -54 92 -54 95 0 4 -11 22
-23 41 -13 19 -35 55 -49 80 -32 57 -53 93 -118 205 -29 50 -64 110 -78 135
-14 25 -36 62 -49 82 -12 21 -23 39 -23 42 0 2 -18 34 -40 70 -22 36 -40 70
-40 75 0 5 -4 11 -8 13 -4 2 -25 35 -46 73 -22 39 -46 78 -54 88 -8 9 -11 17
-7 17 4 0 1 8 -7 18 -13 15 -60 94 -115 192 -11 19 -43 74 -72 122 -28 48 -51
91 -51 97 0 6 -4 11 -8 11 -4 0 -13 12 -19 28 -23 52 -230 396 -241 400 -7 2
-12 0 -12 -5z"/>
<path d="M2340 4663 c-52 -31 -120 -69 -150 -86 -30 -16 -66 -37 -80 -46 -14
-8 -36 -21 -49 -28 -79 -43 -107 -59 -111 -64 -3 -4 -32 -21 -65 -39 -33 -17
-78 -42 -100 -55 -22 -12 -114 -65 -205 -117 -91 -53 -181 -104 -200 -114 -19
-11 -36 -22 -38 -26 -2 -5 -7 -8 -12 -8 -4 0 -106 -57 -226 -126 -121 -70
-237 -136 -259 -148 -22 -13 -127 -73 -234 -134 -106 -62 -194 -112 -196 -112
-2 0 -32 -17 -66 -38 -35 -21 -89 -52 -119 -69 -84 -45 -103 -57 -118 -70 -7
-7 -19 -13 -26 -13 -31 0 -34 -22 -9 -69 14 -25 32 -53 39 -62 8 -8 14 -19 14
-24 0 -4 22 -44 48 -89 27 -45 52 -88 55 -96 4 -8 16 -28 27 -45 11 -16 23
-37 27 -44 4 -8 58 -102 120 -209 62 -107 113 -196 113 -198 0 -2 38 -67 84
-146 46 -79 93 -160 105 -180 11 -21 29 -53 39 -70 11 -18 34 -60 53 -93 18
-33 37 -61 41 -63 4 -2 8 -8 8 -13 0 -6 23 -49 51 -97 62 -105 83 -140 122
-212 17 -30 41 -71 54 -90 12 -19 23 -40 23 -46 0 -6 6 -17 14 -23 7 -6 28
-39 45 -74 18 -34 50 -91 72 -127 22 -36 47 -78 55 -95 8 -16 23 -43 34 -60
11 -16 23 -37 27 -45 3 -8 16 -31 28 -50 12 -19 39 -66 60 -105 21 -38 42 -72
46 -75 4 -3 12 -17 18 -30 6 -14 24 -47 40 -75 17 -27 40 -68 53 -90 12 -22
28 -49 35 -60 7 -11 20 -36 30 -55 10 -19 20 -37 23 -40 3 -3 14 -21 24 -42
47 -89 10 -100 391 122 l340 198 2 36 c0 20 4 43 7 51 3 8 1 15 -4 15 -5 0 -5
12 -1 28 4 15 5 38 1 52 -4 14 -3 37 1 53 4 15 4 27 -1 27 -5 0 -5 12 -1 28 4
15 5 38 1 52 -4 14 -3 37 1 52 4 14 5 28 3 31 -2 2 -4 28 -4 58 0 58 0 79 0
107 -2 57 -2 391 0 412 1 14 1 31 1 38 -3 38 -4 410 -1 442 1 14 1 31 1 38 -3
38 -4 410 -1 442 1 14 1 31 1 38 -3 38 -4 410 -1 442 1 14 1 31 1 38 -3 38 -4
410 -1 442 1 14 1 31 1 38 -3 38 -4 410 -1 442 1 14 1 31 1 38 -3 33 -4 400
-2 450 1 17 0 32 -1 32 -2 -1 -46 -26 -98 -57z"/>
</g>
</svg>
