<svg width="34" height="34" viewBox="0 0 34 34" fill="none" xmlns="http://www.w3.org/2000/svg">
<path d="M28.0598 -0.00012207H15.0633C12.4553 -0.00012207 10.282 1.92823 9.89082 4.42631C8.06523 4.7331 6.5439 5.96023 5.84844 7.66944C2.58845 7.9324 0.0239258 10.6496 0.0239258 14.0242V27.1282C0.0239258 30.6343 2.84925 33.483 6.32657 33.483H19.323C22.6265 33.483 25.3649 30.8973 25.6257 27.6103C27.3209 26.9091 28.5379 25.3752 28.8422 23.5345C31.3198 23.1401 33.2323 20.9488 33.2323 18.3192V5.25901C33.2758 2.36649 30.9286 -0.00012207 28.0598 -0.00012207ZM31.1025 18.363C31.1025 19.7654 30.1897 20.9049 28.9291 21.2994V9.64162C28.9291 6.7491 26.5819 4.38249 23.7132 4.38249H12.1511C12.5423 3.11153 13.6724 2.19118 15.0633 2.19118H28.0598C29.755 2.19118 31.1025 3.54979 31.1025 5.25901V18.363ZM23.4958 27.1282C23.4958 29.4072 21.6268 31.2917 19.3665 31.2917H6.37003C4.10977 31.2917 2.24072 29.4072 2.24072 27.1282V14.0242C2.24072 11.7453 4.10977 9.86075 6.37003 9.86075H19.3665C21.6268 9.86075 23.4958 11.7453 23.4958 14.0242V27.1282Z" fill="#FFF500"/>
</svg>
