<svg width="13" height="13" viewBox="0 0 13 13" fill="none" xmlns="http://www.w3.org/2000/svg">
<path d="M12.347 3.84532C12.0467 3.12852 11.6169 2.48507 11.0696 1.93248C10.5221 1.37975 9.88439 0.945797 9.17471 0.642778C8.43948 0.328936 7.65846 0.169678 6.85388 0.169678C6.04903 0.169678 5.26827 0.328803 4.53318 0.642778C3.82323 0.94593 3.18568 1.37988 2.63826 1.93248C2.09084 2.48507 1.66082 3.12866 1.36064 3.84532C1.04948 4.58737 0.891846 5.37551 0.891846 6.18797C0.891846 7.0003 1.04948 7.78858 1.36051 8.53076C1.66082 9.24729 2.09071 9.89114 2.63813 10.4437C3.18555 10.9963 3.8231 11.4301 4.53304 11.733C5.26814 12.047 6.0489 12.2061 6.85374 12.2061C7.65833 12.2061 8.43935 12.047 9.17458 11.733C9.88426 11.43 10.5221 10.9963 11.0695 10.4437C11.6169 9.891 12.0467 9.24729 12.3468 8.53076C12.6579 7.78858 12.8155 7.0003 12.8155 6.18797C12.8156 5.37551 12.6579 4.58737 12.347 3.84532ZM6.85374 11.8335C3.77002 11.8335 1.26125 9.30073 1.26125 6.18797C1.26125 3.07495 3.77002 0.542573 6.85374 0.542573C9.9376 0.542573 12.4464 3.07508 12.4464 6.18797C12.4464 9.30073 9.9376 11.8335 6.85374 11.8335Z" fill="white"/>
<path d="M8.68118 2.38031C8.44414 2.14088 8.16778 1.9529 7.85993 1.82156C7.54108 1.68515 7.20239 1.61621 6.85377 1.61621C6.50515 1.61621 6.16672 1.68529 5.84761 1.82156C5.53976 1.95277 5.2634 2.14088 5.02635 2.38031C4.78917 2.61959 4.60282 2.89856 4.47272 3.2092C4.33771 3.53146 4.26929 3.87336 4.26929 4.22514C4.26929 4.30744 4.33546 4.37425 4.41713 4.37425H5.4982C5.57973 4.37425 5.6459 4.30744 5.6459 4.22514C5.6459 3.55283 6.18776 3.00598 6.85364 3.00598C7.51964 3.00598 8.06137 3.55283 8.06137 4.22514C8.06137 4.60672 7.88918 4.95904 7.58913 5.19232C7.54863 5.22385 7.50614 5.25271 7.46233 5.27849C7.45717 5.28157 7.45201 5.28464 7.44685 5.28744C7.44394 5.28931 7.44076 5.29092 7.43811 5.29266C6.65312 5.71819 6.16539 6.54054 6.16539 7.43957V7.87192C6.16539 7.95436 6.23157 8.02116 6.3131 8.02116H7.39417C7.4757 8.02116 7.54214 7.95436 7.54214 7.87192V7.43957C7.54214 7.05025 7.75418 6.69539 8.09565 6.51342C8.10505 6.50847 8.11418 6.50326 8.12331 6.49778L8.13019 6.49391C8.1388 6.48897 8.1478 6.48349 8.15666 6.47854C8.25024 6.42323 8.3417 6.3611 8.42852 6.29377C8.73532 6.05528 8.98944 5.74545 9.16295 5.39714C9.34534 5.03132 9.43812 4.63705 9.43812 4.22527C9.43812 3.87349 9.36969 3.53172 9.23469 3.20933C9.10459 2.89856 8.91823 2.61959 8.68118 2.38031ZM8.89917 5.26273C8.74538 5.57136 8.52037 5.84592 8.24839 6.05702C8.17175 6.11661 8.09075 6.17165 8.0075 6.22082C7.99916 6.22563 7.99135 6.23017 7.98315 6.23498C7.98249 6.23525 7.98196 6.23552 7.98143 6.23605L7.97388 6.24046C7.96846 6.24353 7.96329 6.24674 7.95787 6.24941C7.51911 6.48309 7.24646 6.93949 7.24646 7.43944V7.72282H6.46081V7.43944C6.46081 6.64956 6.88977 5.92702 7.58026 5.55399C7.58198 5.55305 7.58489 5.55118 7.58648 5.55025L7.59244 5.54704C7.59866 5.5433 7.60488 5.53969 7.6115 5.53595C7.66603 5.50375 7.7191 5.46755 7.76953 5.4284C8.14277 5.13834 8.35705 4.69958 8.35705 4.22487C8.35705 3.3881 7.68257 2.70737 6.85377 2.70737C6.07473 2.70737 5.43215 3.30874 5.35777 4.07564H4.56947C4.58575 3.81644 4.64464 3.56473 4.74484 3.3253C4.86025 3.05021 5.02516 2.80304 5.23534 2.591C5.44526 2.37897 5.68998 2.21236 5.96276 2.09586C6.2452 1.97521 6.54499 1.91415 6.85377 1.91415C7.16268 1.91415 7.46247 1.97521 7.74465 2.09586C8.01743 2.21236 8.26215 2.37884 8.4722 2.591C8.68224 2.8029 8.84716 3.05021 8.96244 3.3253C9.08195 3.61042 9.14257 3.91304 9.14257 4.22487C9.1427 4.58962 9.06078 4.93873 8.89917 5.26273Z" fill="white"/>
<path d="M6.85375 8.72351C6.2976 8.72351 5.84521 9.18018 5.84521 9.74172C5.84521 10.303 6.2976 10.7597 6.85375 10.7597C7.40964 10.7597 7.86216 10.303 7.86216 9.74172C7.86216 9.18018 7.40964 8.72351 6.85375 8.72351ZM6.85375 10.4613C6.46053 10.4613 6.14063 10.1383 6.14063 9.74159C6.14063 9.34438 6.46053 9.02185 6.85375 9.02185C7.24698 9.02185 7.56675 9.34438 7.56675 9.74159C7.56675 10.1383 7.24698 10.4613 6.85375 10.4613Z" fill="white"/>
</svg>
