<svg width="55" height="55" viewBox="0 0 55 55" fill="none" xmlns="http://www.w3.org/2000/svg">
<path d="M23.6489 21.04V30.84C23.6489 32.2 23.2555 33.26 22.4689 34.02C21.6822 34.7667 20.6289 35.14 19.3089 35.14C17.9755 35.14 16.8955 34.7534 16.0689 33.98C15.2555 33.2067 14.8489 32.1267 14.8489 30.74H17.6489C17.6622 31.34 17.8022 31.8067 18.0689 32.14C18.3489 32.4734 18.7489 32.64 19.2689 32.64C19.7755 32.64 20.1622 32.48 20.4289 32.16C20.6955 31.84 20.8289 31.4 20.8289 30.84V21.04H23.6489Z" fill="black"/>
<path d="M31.7951 21.04C33.2618 21.04 34.5485 21.3267 35.6551 21.9C36.7751 22.4734 37.6351 23.2934 38.2351 24.36C38.8485 25.4134 39.1551 26.64 39.1551 28.04C39.1551 29.44 38.8485 30.6667 38.2351 31.72C37.6351 32.76 36.7751 33.5667 35.6551 34.14C34.5485 34.7134 33.2618 35 31.7951 35H26.9151V21.04H31.7951ZM31.6951 32.62C33.1618 32.62 34.2951 32.22 35.0951 31.42C35.8951 30.62 36.2951 29.4934 36.2951 28.04C36.2951 26.5867 35.8951 25.4534 35.0951 24.64C34.2951 23.8134 33.1618 23.4 31.6951 23.4H29.7151V32.62H31.6951Z" fill="black"/>
</svg>
