<svg width="14" height="14" viewBox="0 0 14 14" fill="none" xmlns="http://www.w3.org/2000/svg">
<path fill-rule="evenodd" clip-rule="evenodd" d="M11.6499 10.6769H11.1117V11.2202C11.1117 11.5201 10.8706 11.7635 10.5735 11.7635C10.2764 11.7635 10.0353 11.5201 10.0353 11.2202V10.6769H9.49703C9.19993 10.6769 8.95881 10.4335 8.95881 10.1336C8.95881 9.83365 9.19993 9.59025 9.49703 9.59025H10.0353V9.04694C10.0353 8.74703 10.2764 8.50362 10.5735 8.50362C10.8706 8.50362 11.1117 8.74703 11.1117 9.04694V9.59025H11.6499C11.947 9.59025 12.1881 9.83365 12.1881 10.1336C12.1881 10.4335 11.947 10.6769 11.6499 10.6769ZM4.65304 12.3508V11.7733C4.65304 11.6679 4.66865 11.5652 4.69772 11.4674C4.78545 11.1745 4.99751 10.9295 5.28545 10.8051L6.47977 10.2884C6.67783 10.2026 6.80593 10.0064 6.80593 9.7891V7.99182C6.80593 7.82177 6.72681 7.66149 6.59279 7.55826C6.44371 7.44525 6.31238 7.3116 6.19666 7.16219C6.17998 7.14154 6.16921 7.11764 6.1536 7.09645C6.06157 6.96877 5.98084 6.82914 5.9141 6.67864C5.88342 6.60801 5.85812 6.53575 5.83552 6.4624C5.81722 6.40318 5.79569 6.34722 5.78223 6.28528C5.75048 6.1375 5.72949 5.98592 5.72949 5.83107V3.40301C5.73002 3.39377 5.7311 3.38399 5.7311 3.37639V3.37367C5.7311 3.36009 5.73325 3.3465 5.73379 3.33238C5.73595 3.31554 5.73864 3.29869 5.73971 3.28131C5.74725 3.09332 5.77308 2.91294 5.81453 2.74614L5.81506 2.7456C5.85328 2.59239 5.90925 2.45384 5.97438 2.32671C6.22411 1.83827 6.66976 1.48457 7.34415 1.48457H8.14018C9.18486 1.48457 10.0353 2.34301 10.0353 3.39758V5.83107C10.0353 6.25268 9.91092 6.65256 9.68164 7.003C8.33394 7.39472 7.34415 8.64869 7.34415 10.1336C7.34415 10.1428 7.34523 10.1515 7.34576 10.1607C7.34523 10.1662 7.34415 10.1716 7.34415 10.1776C7.34415 10.195 7.34845 10.2113 7.34899 10.2286C7.35276 10.3683 7.36622 10.5052 7.38721 10.6405C7.4082 10.7877 7.44157 10.9295 7.4814 11.0702C7.4857 11.0849 7.48947 11.0996 7.49377 11.1142C7.6321 11.5761 7.85707 11.9998 8.1687 12.3508H4.65304ZM13.8028 10.1336C13.8028 8.45799 12.5439 7.07526 10.9314 6.89488C11.0493 6.55639 11.1117 6.19944 11.1117 5.83107V3.39758C11.1117 1.74319 9.77852 0.397949 8.14018 0.397949H7.34415C6.45878 0.397949 5.72034 0.814126 5.23971 1.48457H4.65304C2.96841 1.48457 1.96194 3.1482 1.96194 4.7564V6.38634C1.96194 7.31703 2.35107 8.18361 3.03838 8.80353V9.43106L2.17077 9.80649C1.38981 10.1439 0.885498 10.9159 0.885498 11.7733V12.8941C0.885498 13.194 1.12662 13.4374 1.42372 13.4374H4.11482H10.5735C10.6558 13.4374 10.7317 13.4152 10.8017 13.382C12.4761 13.2625 13.8028 11.8537 13.8028 10.1336Z" fill="white"/>
</svg>
