<svg width="13" height="16" viewBox="0 0 13 16" fill="none" xmlns="http://www.w3.org/2000/svg">
<path fill-rule="evenodd" clip-rule="evenodd" d="M5.92043 1.02761C3.2008 1.27937 1.07644 3.41785 1.07644 6.01823V10.6337C0.848232 10.6944 0.643712 10.8132 0.473092 10.9727C0.170082 11.2546 0 11.6372 0 12.0364C0 12.4356 0.170082 12.8183 0.473092 13.1002C0.775572 13.3825 1.18624 13.541 1.61466 13.541H3.98445C4.39619 14.4247 5.34884 15.0455 6.45865 15.0455C7.56846 15.0455 8.52111 14.4247 8.93285 13.541H11.3026C11.7311 13.541 12.1417 13.3825 12.4442 13.1002C12.7472 12.8183 12.9173 12.4356 12.9173 12.0364C12.9173 11.6372 12.7472 11.2546 12.4442 10.9727C12.2768 10.8167 12.0766 10.6984 11.8581 10.6237C11.8409 9.51882 11.8409 6.01823 11.8409 6.01823C11.8409 3.41785 9.7165 1.27937 6.99687 1.02761V0.501521C6.99687 0.224681 6.75575 0 6.45865 0C6.16155 0 5.92043 0.224681 5.92043 0.501521V1.02761ZM5.24711 13.541H7.67018C7.37416 13.8489 6.94036 14.0425 6.45865 14.0425C5.97694 14.0425 5.54314 13.8489 5.24711 13.541ZM11.8409 12.0364C11.8409 12.1693 11.7843 12.2972 11.6832 12.391C11.5825 12.4853 11.4453 12.538 11.3026 12.538H1.61466C1.47203 12.538 1.33479 12.4853 1.23414 12.391C1.13295 12.2972 1.07644 12.1693 1.07644 12.0364C1.07644 11.9035 1.13295 11.7756 1.23414 11.6819C1.27612 11.6427 1.32402 11.6086 1.38107 11.5956C1.39937 11.5916 1.41713 11.5866 1.43436 11.5811C1.86493 11.4396 2.15288 11.061 2.15288 10.6357V6.01823C2.15288 3.80252 4.08079 2.00608 6.45865 2.00608C8.83651 2.00608 10.7644 3.80252 10.7644 6.01823C10.7644 6.01823 10.7644 9.53392 10.7822 10.6407C10.7843 11.057 11.0669 11.4271 11.4883 11.5655C11.5588 11.5896 11.6266 11.6292 11.6832 11.6819C11.7843 11.7756 11.8409 11.9035 11.8409 12.0364Z" fill="#F7B801"/>
</svg>
