<svg width="14" height="16" viewBox="0 0 14 16" fill="none" xmlns="http://www.w3.org/2000/svg">
<g clip-path="url(#clip0_1_2)">
<path fill-rule="evenodd" clip-rule="evenodd" d="M6.80593 1.54409C4.0863 1.79585 1.96194 3.93433 1.96194 6.53471V11.1502C1.73373 11.2109 1.52921 11.3297 1.35859 11.4892C1.05558 11.7711 0.885498 12.1537 0.885498 12.5529C0.885498 12.9521 1.05558 13.3348 1.35859 13.6167C1.66107 13.899 2.07174 14.0575 2.50016 14.0575H4.86995C5.28169 14.9412 6.23434 15.562 7.34415 15.562C8.45396 15.562 9.40661 14.9412 9.81835 14.0575H12.1881C12.6166 14.0575 13.0272 13.899 13.3297 13.6167C13.6327 13.3348 13.8028 12.9521 13.8028 12.5529C13.8028 12.1537 13.6327 11.7711 13.3297 11.4892C13.1623 11.3332 12.9621 11.2149 12.7436 11.1402C12.7264 10.0353 12.7264 6.53471 12.7264 6.53471C12.7264 3.93433 10.602 1.79585 7.88237 1.54409V1.018C7.88237 0.74116 7.64125 0.516479 7.34415 0.516479C7.04705 0.516479 6.80593 0.74116 6.80593 1.018V1.54409ZM6.13261 14.0575H8.55568C8.25966 14.3654 7.82586 14.559 7.34415 14.559C6.86244 14.559 6.42864 14.3654 6.13261 14.0575ZM12.7264 12.5529C12.7264 12.6858 12.6698 12.8137 12.5687 12.9075C12.468 13.0018 12.3308 13.0545 12.1881 13.0545H2.50016C2.35753 13.0545 2.22029 13.0018 2.11964 12.9075C2.01845 12.8137 1.96194 12.6858 1.96194 12.5529C1.96194 12.42 2.01845 12.2921 2.11964 12.1984C2.16162 12.1592 2.20952 12.1251 2.26657 12.1121C2.28487 12.1081 2.30263 12.1031 2.31986 12.0976C2.75043 11.9561 3.03838 11.5775 3.03838 11.1522V6.53471C3.03838 4.319 4.96629 2.52256 7.34415 2.52256C9.72201 2.52256 11.6499 4.319 11.6499 6.53471C11.6499 6.53471 11.6499 10.0504 11.6677 11.1572C11.6698 11.5735 11.9524 11.9436 12.3738 12.082C12.4443 12.1061 12.5121 12.1457 12.5687 12.1984C12.6698 12.2921 12.7264 12.42 12.7264 12.5529Z" fill="white"/>
<path d="M13 2.5C13 3.88071 11.8807 5 10.5 5C9.11929 5 8 3.88071 8 2.5C8 1.11929 9.11929 0 10.5 0C11.8807 0 13 1.11929 13 2.5Z" fill="#F7B801"/>
</g>
<defs>
<clipPath id="clip0_1_2">
<rect width="14" height="16" fill="white"/>
</clipPath>
</defs>
</svg>
