<svg width="14" height="14" viewBox="0 0 14 14" fill="none" xmlns="http://www.w3.org/2000/svg">
<path d="M13.632 12.1406L9.45797 7.92709C9.40304 7.87167 9.33024 7.84114 9.25275 7.84114C9.17524 7.84114 9.10202 7.87167 9.04751 7.92709L8.98961 7.98598L8.83888 8.13772L7.82807 7.11691C7.87404 7.06103 7.9179 7.0043 7.96005 6.94671C9.09264 5.39851 8.96491 3.19959 7.57684 1.79839C6.04785 0.255356 3.56082 0.255356 2.03225 1.79839C0.503246 3.34185 0.503246 5.8524 2.03225 7.39586C2.79653 8.16737 3.80054 8.55291 4.80455 8.55291C5.62377 8.55291 6.44256 8.29632 7.13147 7.78269C7.18895 7.74014 7.24515 7.69544 7.30051 7.64945L8.31176 8.67025L8.16103 8.82198L8.10313 8.88043C7.98986 8.99433 7.98986 9.18044 8.10313 9.29478L12.2771 13.5082C12.3912 13.6234 12.5407 13.6806 12.6901 13.6806C12.8396 13.6806 12.989 13.6234 13.1027 13.5082L13.632 12.974C13.8598 12.7445 13.8598 12.3705 13.632 12.1406ZM7.05654 6.87106C6.43574 7.49773 5.62036 7.81107 4.80455 7.81107C3.98873 7.81107 3.17294 7.49773 2.55214 6.87106C1.31012 5.61729 1.31012 3.57695 2.55214 2.32362C3.15377 1.71628 3.95341 1.38147 4.80455 1.38147C5.65527 1.38147 6.45491 1.71628 7.05654 2.32362C8.29855 3.57695 8.29855 5.61729 7.05654 6.87106Z" fill="white"/>
</svg>
