<svg width="16" height="16" viewBox="0 0 16 16" fill="none" xmlns="http://www.w3.org/2000/svg">
<path d="M15.3639 6.1348L13.7027 5.85003C13.6086 5.54943 13.4832 5.26466 13.3422 4.97988L14.3139 3.60348C14.4549 3.3978 14.4393 3.11303 14.2669 2.939L12.9347 1.59424C12.7623 1.42021 12.4802 1.38856 12.2765 1.54677L10.9129 2.52766C10.6465 2.38527 10.3487 2.25871 10.051 2.16378L9.78452 0.502601C9.7375 0.249468 9.53376 0.0754395 9.283 0.0754395H7.4023C7.15153 0.0754395 6.94779 0.249468 6.90077 0.502601L6.61867 2.1796C6.32089 2.27453 6.03878 2.4011 5.75668 2.54348L4.39317 1.56259C4.18943 1.42021 3.90732 1.43603 3.73492 1.61006L2.40276 2.95482C2.23036 3.12885 2.19901 3.41363 2.35574 3.6193L3.32744 4.9957C3.18638 5.26466 3.061 5.56525 2.96697 5.86585L1.32135 6.1348C1.07059 6.18226 0.898193 6.38793 0.898193 6.64107V8.53956C0.898193 8.79269 1.07059 8.99836 1.32135 9.04583L2.98264 9.3306C3.07668 9.6312 3.20206 9.91597 3.34311 10.2007L2.37141 11.5772C2.23036 11.7828 2.24603 12.0676 2.41843 12.2416L3.75059 13.5864C3.92299 13.7604 4.2051 13.7921 4.40884 13.6339L5.77235 12.653C6.03878 12.7954 6.33656 12.9219 6.63434 13.0168L6.91645 14.6938C6.96346 14.947 7.16721 15.121 7.41797 15.121H9.29867C9.54943 15.121 9.75318 14.947 9.80019 14.6938L10.0666 13.001C10.3644 12.9061 10.6465 12.7795 10.9286 12.6371L12.2921 13.618C12.4959 13.7604 12.778 13.7446 12.9504 13.5706L14.2825 12.2258C14.4549 12.0518 14.4863 11.767 14.3296 11.5613L13.3579 10.1849C13.4989 9.91597 13.6243 9.61537 13.7183 9.31478L15.3796 9.03001C15.6304 8.98254 15.8028 8.77687 15.8028 8.52374V6.64107C15.7871 6.38793 15.6147 6.18226 15.3639 6.1348ZM8.34265 10.2957C6.85376 10.2957 5.66264 9.07747 5.66264 7.59031C5.66264 6.08734 6.86943 4.88496 8.34265 4.88496C9.81587 4.88496 11.0227 6.08734 11.0227 7.59031C11.0227 9.09329 9.83154 10.2957 8.34265 10.2957Z" fill="white"/>
</svg>
