<svg width="60" height="61" viewBox="0 0 60 61" fill="none" xmlns="http://www.w3.org/2000/svg">
<path d="M0 28.728L43.6971 3.49949L60 31.7369L16.3029 56.9655L0 28.728Z" fill="black"/>
<path d="M22.8774 8.53507C22.8774 4.66872 26.0117 1.53442 29.8781 1.53442C33.7444 1.53442 36.8787 4.66872 36.8787 8.53508V52.2652C36.8787 56.1315 33.7444 59.2658 29.8781 59.2658C26.0117 59.2658 22.8774 56.1315 22.8774 52.2652V8.53507Z" fill="white"/>
<path d="M27.8647 2.10979C27.8647 0.944584 28.8093 0 29.9745 0C31.1397 0 32.0843 0.944583 32.0843 2.10979V58.6904C32.0843 59.8556 31.1397 60.8002 29.9745 60.8002C28.8093 60.8002 27.8647 59.8556 27.8647 58.6904V2.10979Z" fill="black"/>
</svg>
